<svg width="73" height="20" viewBox="0 0 73 20" fill="none" xmlns="http://www.w3.org/2000/svg">
<rect x="0.5" y="0.5" width="72" height="19" rx="9.5" fill="white"/>
<path d="M8.62873 13V5.72727H9.50941V8.96591H13.3873V5.72727H14.2679V13H13.3873V9.74716H9.50941V13H8.62873ZM18.1333 13.1136C17.6409 13.1136 17.2089 12.9964 16.8372 12.7621C16.4679 12.5277 16.179 12.1998 15.9707 11.7784C15.7647 11.357 15.6618 10.8646 15.6618 10.3011C15.6618 9.73295 15.7647 9.23698 15.9707 8.81321C16.179 8.38944 16.4679 8.06037 16.8372 7.82599C17.2089 7.59162 17.6409 7.47443 18.1333 7.47443C18.6258 7.47443 19.0566 7.59162 19.426 7.82599C19.7976 8.06037 20.0865 8.38944 20.2924 8.81321C20.5008 9.23698 20.6049 9.73295 20.6049 10.3011C20.6049 10.8646 20.5008 11.357 20.2924 11.7784C20.0865 12.1998 19.7976 12.5277 19.426 12.7621C19.0566 12.9964 18.6258 13.1136 18.1333 13.1136ZM18.1333 12.3608C18.5074 12.3608 18.8152 12.2649 19.0566 12.0732C19.2981 11.8814 19.4769 11.6293 19.5929 11.3168C19.7089 11.0043 19.7669 10.6657 19.7669 10.3011C19.7669 9.93655 19.7089 9.59683 19.5929 9.28196C19.4769 8.96709 19.2981 8.71259 19.0566 8.51847C18.8152 8.32434 18.5074 8.22727 18.1333 8.22727C17.7593 8.22727 17.4515 8.32434 17.21 8.51847C16.9686 8.71259 16.7898 8.96709 16.6738 9.28196C16.5578 9.59683 16.4998 9.93655 16.4998 10.3011C16.4998 10.6657 16.5578 11.0043 16.6738 11.3168C16.7898 11.6293 16.9686 11.8814 17.21 12.0732C17.4515 12.2649 17.7593 12.3608 18.1333 12.3608ZM22.9345 13L21.2725 7.54545H22.1532L23.3322 11.7216H23.389L24.5538 7.54545H25.4487L26.5993 11.7074H26.6561L27.835 7.54545H28.7157L27.0538 13H26.2299L25.0368 8.80966H24.9515L23.7583 13H22.9345ZM32.3521 6.50852V5.72727H37.8066V6.50852H35.5197V13H34.639V6.50852H32.3521ZM40.4771 13.1136C39.9847 13.1136 39.5526 12.9964 39.1809 12.7621C38.8116 12.5277 38.5228 12.1998 38.3145 11.7784C38.1085 11.357 38.0055 10.8646 38.0055 10.3011C38.0055 9.73295 38.1085 9.23698 38.3145 8.81321C38.5228 8.38944 38.8116 8.06037 39.1809 7.82599C39.5526 7.59162 39.9847 7.47443 40.4771 7.47443C40.9695 7.47443 41.4004 7.59162 41.7697 7.82599C42.1414 8.06037 42.4302 8.38944 42.6362 8.81321C42.8445 9.23698 42.9487 9.73295 42.9487 10.3011C42.9487 10.8646 42.8445 11.357 42.6362 11.7784C42.4302 12.1998 42.1414 12.5277 41.7697 12.7621C41.4004 12.9964 40.9695 13.1136 40.4771 13.1136ZM40.4771 12.3608C40.8511 12.3608 41.1589 12.2649 41.4004 12.0732C41.6419 11.8814 41.8206 11.6293 41.9366 11.3168C42.0526 11.0043 42.1106 10.6657 42.1106 10.3011C42.1106 9.93655 42.0526 9.59683 41.9366 9.28196C41.8206 8.96709 41.6419 8.71259 41.4004 8.51847C41.1589 8.32434 40.8511 8.22727 40.4771 8.22727C40.103 8.22727 39.7953 8.32434 39.5538 8.51847C39.3123 8.71259 39.1336 8.96709 39.0176 9.28196C38.9016 9.59683 38.8436 9.93655 38.8436 10.3011C38.8436 10.6657 38.9016 11.0043 39.0176 11.3168C39.1336 11.6293 39.3123 11.8814 39.5538 12.0732C39.7953 12.2649 40.103 12.3608 40.4771 12.3608ZM47.1541 13V5.72727H49.6115C50.1821 5.72727 50.6484 5.83026 51.0107 6.03622C51.3752 6.23982 51.6451 6.51562 51.8203 6.86364C51.9955 7.21165 52.0831 7.59991 52.0831 8.02841C52.0831 8.45691 51.9955 8.84635 51.8203 9.19673C51.6475 9.54711 51.38 9.82647 51.0178 10.0348C50.6555 10.2408 50.1915 10.3438 49.6257 10.3438H47.8643V9.5625H49.5973C49.9879 9.5625 50.3016 9.49503 50.5384 9.36009C50.7751 9.22514 50.9467 9.04285 51.0533 8.81321C51.1622 8.5812 51.2166 8.3196 51.2166 8.02841C51.2166 7.73722 51.1622 7.4768 51.0533 7.24716C50.9467 7.01752 50.7739 6.83759 50.5348 6.70739C50.2957 6.57481 49.9785 6.50852 49.5831 6.50852H48.0348V13H47.1541ZM54.2262 5.72727V13H53.3881V5.72727H54.2262ZM57.3663 13.1278C57.0207 13.1278 56.707 13.0627 56.4252 12.9325C56.1435 12.8 55.9198 12.6094 55.7541 12.3608C55.5884 12.1098 55.5055 11.8068 55.5055 11.4517C55.5055 11.1392 55.5671 10.8859 55.6902 10.6918C55.8133 10.4953 55.9778 10.3414 56.1838 10.2301C56.3897 10.1188 56.617 10.036 56.8656 9.98153C57.1165 9.92472 57.3687 9.87973 57.622 9.84659C57.9534 9.80398 58.2221 9.77202 58.4281 9.75071C58.6364 9.72704 58.7879 9.68797 58.8826 9.63352C58.9797 9.57907 59.0282 9.48437 59.0282 9.34943V9.32102C59.0282 8.97064 58.9324 8.69839 58.7406 8.50426C58.5512 8.31013 58.2636 8.21307 57.8777 8.21307C57.4776 8.21307 57.1639 8.30066 56.9366 8.47585C56.7093 8.65104 56.5495 8.83807 56.4572 9.03693L55.6618 8.75284C55.8038 8.4214 55.9932 8.16335 56.2299 7.97869C56.469 7.79167 56.7295 7.66146 57.0112 7.58807C57.2953 7.51231 57.5746 7.47443 57.8493 7.47443C58.0244 7.47443 58.2257 7.49574 58.4529 7.53835C58.6826 7.5786 58.9039 7.66264 59.117 7.79048C59.3324 7.91832 59.5112 8.11127 59.6532 8.36932C59.7953 8.62737 59.8663 8.97301 59.8663 9.40625V13H59.0282V12.2614H58.9856C58.9288 12.3797 58.8341 12.5064 58.7015 12.6413C58.569 12.7763 58.3926 12.8911 58.1724 12.9858C57.9522 13.0805 57.6835 13.1278 57.3663 13.1278ZM57.4941 12.375C57.8256 12.375 58.1049 12.3099 58.3322 12.1797C58.5618 12.0495 58.7347 11.8814 58.8507 11.6754C58.969 11.4695 59.0282 11.2528 59.0282 11.0256V10.2585C58.9927 10.3011 58.9146 10.3402 58.7939 10.3757C58.6755 10.4089 58.5382 10.4384 58.3819 10.4645C58.228 10.4882 58.0777 10.5095 57.9309 10.5284C57.7865 10.545 57.6693 10.5592 57.5794 10.571C57.3616 10.5994 57.158 10.6456 56.9686 10.7095C56.7815 10.7711 56.63 10.8646 56.514 10.9901C56.4004 11.1132 56.3436 11.2812 56.3436 11.4943C56.3436 11.7855 56.4513 12.0057 56.6667 12.1548C56.8845 12.3016 57.1603 12.375 57.4941 12.375ZM61.7404 15.0455C61.5984 15.0455 61.4717 15.0336 61.3604 15.0099C61.2492 14.9886 61.1722 14.9673 61.1296 14.946L61.3427 14.2074C61.5463 14.2595 61.7262 14.2784 61.8825 14.2642C62.0387 14.25 62.1772 14.1802 62.2979 14.0547C62.421 13.9316 62.5335 13.7315 62.6353 13.4545L62.7915 13.0284L60.7745 7.54545H61.6836L63.1893 11.892H63.2461L64.7518 7.54545H65.6609L63.3455 13.7955C63.2414 14.0772 63.1123 14.3104 62.9585 14.495C62.8046 14.6821 62.6258 14.8205 62.4222 14.9105C62.221 15.0005 61.9937 15.0455 61.7404 15.0455Z" fill="#8B939C"/>
<rect x="0.5" y="0.5" width="72" height="19" rx="9.5" stroke="#8B939C"/>
</svg>
