<svg width="73" height="20" viewBox="0 0 73 20" fill="none" xmlns="http://www.w3.org/2000/svg">
<rect x="0.5" y="0.5" width="72" height="19" rx="9.5" fill="white"/>
<path d="M7.47053 13V5.72727H8.35121V12.2188H11.7319V13H7.47053ZM15.2688 13.1136C14.7433 13.1136 14.2899 12.9976 13.9087 12.7656C13.5299 12.5312 13.2376 12.2045 13.0316 11.7855C12.828 11.3641 12.7262 10.8741 12.7262 10.3153C12.7262 9.75663 12.828 9.2642 13.0316 8.83807C13.2376 8.40956 13.524 8.07576 13.891 7.83665C14.2603 7.59517 14.6912 7.47443 15.1836 7.47443C15.4677 7.47443 15.7482 7.52178 16.0252 7.61648C16.3022 7.71117 16.5543 7.86506 16.7816 8.07812C17.0089 8.28883 17.19 8.56818 17.3249 8.91619C17.4599 9.2642 17.5273 9.69271 17.5273 10.2017V10.5568H13.3228V9.83239H16.6751C16.6751 9.52462 16.6135 9.25 16.4904 9.00852C16.3697 8.76705 16.1969 8.57647 15.9719 8.43679C15.7494 8.29711 15.4866 8.22727 15.1836 8.22727C14.8498 8.22727 14.561 8.31013 14.3171 8.47585C14.0756 8.6392 13.8898 8.85227 13.7596 9.11506C13.6294 9.37784 13.5643 9.65956 13.5643 9.96023V10.4432C13.5643 10.8551 13.6353 11.2043 13.7773 11.4908C13.9218 11.7749 14.1218 11.9915 14.3775 12.1406C14.6332 12.2874 14.9303 12.3608 15.2688 12.3608C15.489 12.3608 15.6879 12.33 15.8654 12.2685C16.0453 12.2045 16.2004 12.1098 16.3306 11.9844C16.4608 11.8565 16.5614 11.6979 16.6325 11.5085L17.4421 11.7358C17.3569 12.0104 17.2137 12.2519 17.0124 12.4602C16.8112 12.6662 16.5626 12.8272 16.2667 12.9432C15.9708 13.0568 15.6381 13.1136 15.2688 13.1136ZM20.4073 13.1278C20.0617 13.1278 19.748 13.0627 19.4663 12.9325C19.1845 12.8 18.9608 12.6094 18.7951 12.3608C18.6294 12.1098 18.5465 11.8068 18.5465 11.4517C18.5465 11.1392 18.6081 10.8859 18.7312 10.6918C18.8543 10.4953 19.0188 10.3414 19.2248 10.2301C19.4308 10.1188 19.658 10.036 19.9066 9.98153C20.1576 9.92472 20.4097 9.87973 20.663 9.84659C20.9944 9.80398 21.2631 9.77202 21.4691 9.75071C21.6774 9.72704 21.829 9.68797 21.9237 9.63352C22.0207 9.57907 22.0692 9.48437 22.0692 9.34943V9.32102C22.0692 8.97064 21.9734 8.69839 21.7816 8.50426C21.5922 8.31013 21.3046 8.21307 20.9187 8.21307C20.5186 8.21307 20.2049 8.30066 19.9776 8.47585C19.7504 8.65104 19.5906 8.83807 19.4982 9.03693L18.7028 8.75284C18.8448 8.4214 19.0342 8.16335 19.271 7.97869C19.5101 7.79167 19.7705 7.66146 20.0522 7.58807C20.3363 7.51231 20.6156 7.47443 20.8903 7.47443C21.0655 7.47443 21.2667 7.49574 21.494 7.53835C21.7236 7.5786 21.945 7.66264 22.158 7.79048C22.3735 7.91832 22.5522 8.11127 22.6942 8.36932C22.8363 8.62737 22.9073 8.97301 22.9073 9.40625V13H22.0692V12.2614H22.0266C21.9698 12.3797 21.8751 12.5064 21.7425 12.6413C21.61 12.7763 21.4336 12.8911 21.2134 12.9858C20.9933 13.0805 20.7246 13.1278 20.4073 13.1278ZM20.5352 12.375C20.8666 12.375 21.146 12.3099 21.3732 12.1797C21.6029 12.0495 21.7757 11.8814 21.8917 11.6754C22.0101 11.4695 22.0692 11.2528 22.0692 11.0256V10.2585C22.0337 10.3011 21.9556 10.3402 21.8349 10.3757C21.7165 10.4089 21.5792 10.4384 21.4229 10.4645C21.2691 10.4882 21.1187 10.5095 20.9719 10.5284C20.8275 10.545 20.7103 10.5592 20.6204 10.571C20.4026 10.5994 20.199 10.6456 20.0096 10.7095C19.8226 10.7711 19.671 10.8646 19.555 10.9901C19.4414 11.1132 19.3846 11.2812 19.3846 11.4943C19.3846 11.7855 19.4923 12.0057 19.7077 12.1548C19.9255 12.3016 20.2013 12.375 20.5352 12.375ZM26.4966 13.1136C26.0421 13.1136 25.6408 12.9988 25.2928 12.7692C24.9448 12.5372 24.6725 12.2105 24.476 11.7891C24.2795 11.3653 24.1813 10.8646 24.1813 10.2869C24.1813 9.71402 24.2795 9.21686 24.476 8.79545C24.6725 8.37405 24.946 8.04853 25.2963 7.81889C25.6467 7.58925 26.0516 7.47443 26.5108 7.47443C26.8659 7.47443 27.1465 7.53362 27.3525 7.65199C27.5608 7.76799 27.7194 7.90057 27.8283 8.04972C27.9396 8.1965 28.026 8.31723 28.0875 8.41193H28.1586V5.72727H28.9966V13H28.187V12.1619H28.0875C28.026 12.2614 27.9384 12.3868 27.8248 12.5384C27.7111 12.6875 27.5489 12.8213 27.3382 12.9396C27.1275 13.0556 26.847 13.1136 26.4966 13.1136ZM26.6103 12.3608C26.9464 12.3608 27.2305 12.2732 27.4625 12.098C27.6945 11.9205 27.8709 11.6754 27.9917 11.3629C28.1124 11.0481 28.1728 10.6847 28.1728 10.2727C28.1728 9.86553 28.1136 9.50923 27.9952 9.20384C27.8768 8.89607 27.7016 8.65696 27.4696 8.48651C27.2376 8.31368 26.9512 8.22727 26.6103 8.22727C26.2551 8.22727 25.9592 8.31842 25.7225 8.50071C25.4881 8.68063 25.3117 8.92566 25.1934 9.2358C25.0774 9.54356 25.0194 9.8892 25.0194 10.2727C25.0194 10.661 25.0785 11.0137 25.1969 11.331C25.3176 11.6458 25.4952 11.8968 25.7296 12.0838C25.9663 12.2685 26.2599 12.3608 26.6103 12.3608ZM32.9348 13.1136C32.4093 13.1136 31.9559 12.9976 31.5748 12.7656C31.196 12.5312 30.9036 12.2045 30.6976 11.7855C30.494 11.3641 30.3922 10.8741 30.3922 10.3153C30.3922 9.75663 30.494 9.2642 30.6976 8.83807C30.9036 8.40956 31.19 8.07576 31.557 7.83665C31.9263 7.59517 32.3572 7.47443 32.8496 7.47443C33.1337 7.47443 33.4142 7.52178 33.6912 7.61648C33.9682 7.71117 34.2203 7.86506 34.4476 8.07812C34.6749 8.28883 34.856 8.56818 34.9909 8.91619C35.1259 9.2642 35.1934 9.69271 35.1934 10.2017V10.5568H30.9888V9.83239H34.3411C34.3411 9.52462 34.2795 9.25 34.1564 9.00852C34.0357 8.76705 33.8629 8.57647 33.638 8.43679C33.4154 8.29711 33.1526 8.22727 32.8496 8.22727C32.5158 8.22727 32.227 8.31013 31.9831 8.47585C31.7417 8.6392 31.5558 8.85227 31.4256 9.11506C31.2954 9.37784 31.2303 9.65956 31.2303 9.96023V10.4432C31.2303 10.8551 31.3013 11.2043 31.4434 11.4908C31.5878 11.7749 31.7878 11.9915 32.0435 12.1406C32.2992 12.2874 32.5963 12.3608 32.9348 12.3608C33.155 12.3608 33.3539 12.33 33.5314 12.2685C33.7114 12.2045 33.8664 12.1098 33.9966 11.9844C34.1268 11.8565 34.2275 11.6979 34.2985 11.5085L35.1081 11.7358C35.0229 12.0104 34.8797 12.2519 34.6784 12.4602C34.4772 12.6662 34.2286 12.8272 33.9327 12.9432C33.6368 13.0568 33.3042 13.1136 32.9348 13.1136ZM36.4682 13V7.54545H37.2779V8.36932H37.3347C37.4341 8.09943 37.6141 7.88045 37.8745 7.71236C38.1349 7.54427 38.4284 7.46023 38.7551 7.46023C38.8167 7.46023 38.8936 7.46141 38.986 7.46378C39.0783 7.46615 39.1481 7.4697 39.1955 7.47443V8.3267C39.1671 8.3196 39.102 8.30895 39.0002 8.29474C38.9007 8.27817 38.7954 8.26989 38.6841 8.26989C38.419 8.26989 38.1822 8.32552 37.9739 8.43679C37.7679 8.54569 37.6046 8.69721 37.4838 8.89134C37.3655 9.0831 37.3063 9.30208 37.3063 9.5483V13H36.4682ZM40.3026 13V5.72727H41.1406V8.41193H41.2116C41.2732 8.31723 41.3584 8.1965 41.4673 8.04972C41.5786 7.90057 41.7372 7.76799 41.9432 7.65199C42.1515 7.53362 42.4332 7.47443 42.7884 7.47443C43.2476 7.47443 43.6525 7.58925 44.0028 7.81889C44.3532 8.04853 44.6267 8.37405 44.8232 8.79545C45.0196 9.21686 45.1179 9.71402 45.1179 10.2869C45.1179 10.8646 45.0196 11.3653 44.8232 11.7891C44.6267 12.2105 44.3544 12.5372 44.0064 12.7692C43.6584 12.9988 43.2571 13.1136 42.8026 13.1136C42.4522 13.1136 42.1716 13.0556 41.9609 12.9396C41.7502 12.8213 41.5881 12.6875 41.4744 12.5384C41.3608 12.3868 41.2732 12.2614 41.2116 12.1619H41.1122V13H40.3026ZM41.1264 10.2727C41.1264 10.6847 41.1868 11.0481 41.3075 11.3629C41.4283 11.6754 41.6046 11.9205 41.8366 12.098C42.0687 12.2732 42.3527 12.3608 42.6889 12.3608C43.0393 12.3608 43.3317 12.2685 43.5661 12.0838C43.8028 11.8968 43.9804 11.6458 44.0987 11.331C44.2195 11.0137 44.2798 10.661 44.2798 10.2727C44.2798 9.8892 44.2206 9.54356 44.1023 9.2358C43.9863 8.92566 43.8099 8.68063 43.5732 8.50071C43.3388 8.31842 43.044 8.22727 42.6889 8.22727C42.348 8.22727 42.0616 8.31368 41.8295 8.48651C41.5975 8.65696 41.4223 8.89607 41.304 9.20384C41.1856 9.50923 41.1264 9.86553 41.1264 10.2727ZM48.6158 13.1136C48.1233 13.1136 47.6913 12.9964 47.3196 12.7621C46.9503 12.5277 46.6615 12.1998 46.4531 11.7784C46.2472 11.357 46.1442 10.8646 46.1442 10.3011C46.1442 9.73295 46.2472 9.23698 46.4531 8.81321C46.6615 8.38944 46.9503 8.06037 47.3196 7.82599C47.6913 7.59162 48.1233 7.47443 48.6158 7.47443C49.1082 7.47443 49.5391 7.59162 49.9084 7.82599C50.2801 8.06037 50.5689 8.38944 50.7749 8.81321C50.9832 9.23698 51.0874 9.73295 51.0874 10.3011C51.0874 10.8646 50.9832 11.357 50.7749 11.7784C50.5689 12.1998 50.2801 12.5277 49.9084 12.7621C49.5391 12.9964 49.1082 13.1136 48.6158 13.1136ZM48.6158 12.3608C48.9898 12.3608 49.2976 12.2649 49.5391 12.0732C49.7805 11.8814 49.9593 11.6293 50.0753 11.3168C50.1913 11.0043 50.2493 10.6657 50.2493 10.3011C50.2493 9.93655 50.1913 9.59683 50.0753 9.28196C49.9593 8.96709 49.7805 8.71259 49.5391 8.51847C49.2976 8.32434 48.9898 8.22727 48.6158 8.22727C48.2417 8.22727 47.9339 8.32434 47.6925 8.51847C47.451 8.71259 47.2723 8.96709 47.1562 9.28196C47.0402 9.59683 46.9822 9.93655 46.9822 10.3011C46.9822 10.6657 47.0402 11.0043 47.1562 11.3168C47.2723 11.6293 47.451 11.8814 47.6925 12.0732C47.9339 12.2649 48.2417 12.3608 48.6158 12.3608ZM53.9718 13.1278C53.6261 13.1278 53.3124 13.0627 53.0307 12.9325C52.749 12.8 52.5253 12.6094 52.3596 12.3608C52.1938 12.1098 52.111 11.8068 52.111 11.4517C52.111 11.1392 52.1725 10.8859 52.2956 10.6918C52.4187 10.4953 52.5833 10.3414 52.7892 10.2301C52.9952 10.1188 53.2225 10.036 53.4711 9.98153C53.722 9.92472 53.9741 9.87973 54.2275 9.84659C54.5589 9.80398 54.8276 9.77202 55.0336 9.75071C55.2419 9.72704 55.3934 9.68797 55.4881 9.63352C55.5852 9.57907 55.6337 9.48437 55.6337 9.34943V9.32102C55.6337 8.97064 55.5378 8.69839 55.3461 8.50426C55.1567 8.31013 54.869 8.21307 54.4831 8.21307C54.083 8.21307 53.7694 8.30066 53.5421 8.47585C53.3148 8.65104 53.155 8.83807 53.0627 9.03693L52.2672 8.75284C52.4093 8.4214 52.5987 8.16335 52.8354 7.97869C53.0745 7.79167 53.3349 7.66146 53.6167 7.58807C53.9007 7.51231 54.1801 7.47443 54.4547 7.47443C54.6299 7.47443 54.8311 7.49574 55.0584 7.53835C55.2881 7.5786 55.5094 7.66264 55.7225 7.79048C55.9379 7.91832 56.1167 8.11127 56.2587 8.36932C56.4007 8.62737 56.4718 8.97301 56.4718 9.40625V13H55.6337V12.2614H55.5911C55.5343 12.3797 55.4396 12.5064 55.307 12.6413C55.1744 12.7763 54.998 12.8911 54.7779 12.9858C54.5577 13.0805 54.289 13.1278 53.9718 13.1278ZM54.0996 12.375C54.431 12.375 54.7104 12.3099 54.9377 12.1797C55.1673 12.0495 55.3401 11.8814 55.4561 11.6754C55.5745 11.4695 55.6337 11.2528 55.6337 11.0256V10.2585C55.5982 10.3011 55.5201 10.3402 55.3993 10.3757C55.281 10.4089 55.1436 10.4384 54.9874 10.4645C54.8335 10.4882 54.6832 10.5095 54.5364 10.5284C54.392 10.545 54.2748 10.5592 54.1848 10.571C53.967 10.5994 53.7634 10.6456 53.574 10.7095C53.387 10.7711 53.2355 10.8646 53.1195 10.9901C53.0059 11.1132 52.949 11.2812 52.949 11.4943C52.949 11.7855 53.0568 12.0057 53.2722 12.1548C53.49 12.3016 53.7658 12.375 54.0996 12.375ZM58.0014 13V7.54545H58.8111V8.36932H58.8679C58.9673 8.09943 59.1473 7.88045 59.4077 7.71236C59.6681 7.54427 59.9616 7.46023 60.2884 7.46023C60.3499 7.46023 60.4268 7.46141 60.5192 7.46378C60.6115 7.46615 60.6813 7.4697 60.7287 7.47443V8.3267C60.7003 8.3196 60.6352 8.30895 60.5334 8.29474C60.4339 8.27817 60.3286 8.26989 60.2173 8.26989C59.9522 8.26989 59.7154 8.32552 59.5071 8.43679C59.3011 8.54569 59.1378 8.69721 59.017 8.89134C58.8987 9.0831 58.8395 9.30208 58.8395 9.5483V13H58.0014ZM63.6158 13.1136C63.1612 13.1136 62.7599 12.9988 62.4119 12.7692C62.0639 12.5372 61.7917 12.2105 61.5952 11.7891C61.3987 11.3653 61.3004 10.8646 61.3004 10.2869C61.3004 9.71402 61.3987 9.21686 61.5952 8.79545C61.7917 8.37405 62.0651 8.04853 62.4155 7.81889C62.7659 7.58925 63.1707 7.47443 63.63 7.47443C63.9851 7.47443 64.2656 7.53362 64.4716 7.65199C64.6799 7.76799 64.8385 7.90057 64.9474 8.04972C65.0587 8.1965 65.1451 8.31723 65.2067 8.41193H65.2777V5.72727H66.1158V13H65.3061V12.1619H65.2067C65.1451 12.2614 65.0575 12.3868 64.9439 12.5384C64.8303 12.6875 64.6681 12.8213 64.4574 12.9396C64.2467 13.0556 63.9661 13.1136 63.6158 13.1136ZM63.7294 12.3608C64.0656 12.3608 64.3497 12.2732 64.5817 12.098C64.8137 11.9205 64.9901 11.6754 65.1108 11.3629C65.2315 11.0481 65.2919 10.6847 65.2919 10.2727C65.2919 9.86553 65.2327 9.50923 65.1143 9.20384C64.996 8.89607 64.8208 8.65696 64.5888 8.48651C64.3568 8.31368 64.0703 8.22727 63.7294 8.22727C63.3743 8.22727 63.0784 8.31842 62.8416 8.50071C62.6072 8.68063 62.4309 8.92566 62.3125 9.2358C62.1965 9.54356 62.1385 9.8892 62.1385 10.2727C62.1385 10.661 62.1977 11.0137 62.3161 11.331C62.4368 11.6458 62.6143 11.8968 62.8487 12.0838C63.0855 12.2685 63.379 12.3608 63.7294 12.3608Z" fill="#8B939C"/>
<rect x="0.5" y="0.5" width="72" height="19" rx="9.5" stroke="#8B939C"/>
</svg>
