<svg width="109" height="17" viewBox="0 0 109 17" fill="none" xmlns="http://www.w3.org/2000/svg">
<path d="M0.161898 5.54836C0.191352 8.49373 2.60292 10.8575 5.5483 10.8281C8.49367 10.7986 10.8575 8.38707 10.828 5.44169C10.7986 2.49632 8.38701 0.132505 5.44163 0.161959C2.49626 0.191413 0.132444 2.60298 0.161898 5.54836ZM98.1669 5.54836C98.1964 8.49373 100.608 10.8575 103.553 10.8281C106.499 10.7986 108.863 8.38707 108.833 5.44169C108.804 2.49632 106.392 0.132505 103.447 0.161958C100.501 0.191412 98.1375 2.60298 98.1669 5.54836ZM5.09553 6.41179C30.5695 17.5107 55.273 17.5052 73.5864 14.7356C82.7451 13.3506 90.3156 11.2729 95.6006 9.53968C98.2435 8.67296 100.316 7.89198 101.732 7.32611C102.439 7.04316 102.983 6.81394 103.351 6.65462C103.535 6.57495 103.676 6.51275 103.771 6.47005C103.819 6.44869 103.855 6.43221 103.88 6.42085C103.893 6.41517 103.902 6.41077 103.909 6.40768C103.912 6.40614 103.915 6.40492 103.917 6.40404C103.918 6.4036 103.919 6.40318 103.919 6.40296C103.92 6.40263 103.92 6.40239 103.5 5.49503C103.08 4.58766 103.08 4.58758 103.08 4.58759C103.08 4.5877 103.079 4.58779 103.079 4.58802C103.078 4.58847 103.076 4.58925 103.074 4.59037C103.069 4.59259 103.061 4.59612 103.051 4.60093C103.03 4.61056 102.997 4.6253 102.953 4.64491C102.866 4.68413 102.733 4.74281 102.557 4.81894C102.205 4.97121 101.679 5.19327 100.989 5.46903C99.6095 6.0206 97.5767 6.78685 94.9774 7.63926C89.7779 9.34438 82.3168 11.3926 73.2873 12.7581C55.2245 15.4898 30.9255 15.4843 5.8944 4.57826L5.09553 6.41179Z" fill="white"/>
</svg>
